# Blender v2.76 (sub 0) OBJ File: 'jeep.blend'
# www.blender.org
mtllib steering_wheel.mtl
v 0.167391 0.033879 0.109524
v 0.151424 0.040408 0.109517
v 0.141555 0.023315 0.109513
v 0.167391 0.012751 0.109524
v 0.151424 0.006222 0.109517
v 0.151424 0.040408 0.109517
v 0.168409 0.051984 -0.031590
v 0.149922 0.023315 -0.017696
v 0.141555 0.023315 0.109513
v 0.151424 0.006222 0.109517
v 0.168409 -0.005354 -0.031590
v 0.167391 0.012751 0.109524
v 0.189106 0.005596 -0.047874
v 0.167391 0.033879 0.109524
v 0.189106 0.041034 -0.047874
v 0.168409 0.051984 -0.031590
v 0.151424 0.040408 0.109517
v 0.178566 0.007274 -0.067013
v 0.110469 0.032691 -0.058883
v 0.178566 0.039356 -0.067013
v 0.110469 0.013939 -0.058883
v 0.158260 -0.002640 -0.042743
v 0.117236 0.008144 -0.041047
v 0.145830 0.023315 -0.026242
v 0.121419 0.023315 -0.030023
v 0.117236 0.038485 -0.041047
v 0.158260 0.049270 -0.042743
v 0.110469 0.032691 -0.058883
v 0.178566 0.039356 -0.067013
v 0.082556 0.009912 0.001091
v 0.117236 0.008144 -0.041047
v 0.121419 0.023315 -0.030023
v 0.086255 0.023315 0.010829
v 0.082556 0.036718 0.001091
v 0.117236 0.038485 -0.041047
v 0.082556 0.036718 0.001091
v 0.036302 0.036621 0.001059
v 0.036302 0.023315 0.010727
v 0.086255 0.023315 0.010829
v 0.082556 0.009912 0.001091
v 0.036302 0.010008 0.001059
v -0.142352 0.023315 0.109513
v -0.168188 0.012751 0.109524
v -0.152220 0.006222 0.109517
v -0.168188 0.033879 0.109524
v -0.152220 0.040408 0.109517
v -0.159057 0.049270 -0.042743
v -0.111266 0.032691 -0.058883
v -0.179363 0.039356 -0.067013
v -0.146627 0.023315 -0.026242
v -0.118033 0.038485 -0.041047
v -0.122216 0.023315 -0.030023
v -0.118033 0.008144 -0.041047
v -0.159057 -0.002640 -0.042743
v -0.111266 0.013939 -0.058883
v -0.179363 0.007274 -0.067013
v -0.118033 0.038485 -0.041047
v -0.077369 0.031598 -0.014666
v -0.111266 0.032691 -0.058883
v -0.083353 0.036718 0.001091
v -0.122216 0.023315 -0.030023
v -0.087052 0.023315 0.010829
v -0.083353 0.009912 0.001091
v -0.118033 0.008144 -0.041047
v -0.077369 0.015031 -0.014666
v -0.111266 0.013939 -0.058883
v -0.077369 0.031598 -0.014666
v -0.111266 0.032691 -0.058883
v -0.037099 0.015091 -0.014583
v -0.077369 0.031598 -0.014666
v -0.037099 0.031539 -0.014583
v -0.077369 0.015031 -0.014666
v -0.037099 0.010008 0.001059
v -0.083353 0.009912 0.001091
v -0.037099 0.023315 0.010727
v -0.087052 0.023315 0.010829
v -0.083353 0.036718 0.001091
v -0.037099 0.036621 0.001059
v -0.077369 0.031598 -0.014666
v -0.037099 0.031539 -0.014583
v 0.016245 -0.151420 0.021718
v -0.024662 0.010827 0.042796
v -0.017042 -0.151420 0.021718
v 0.023865 0.010827 0.042796
v 0.023865 0.044607 0.042796
v -0.024662 0.044607 0.042796
v -0.040553 0.044607 0.024535
v -0.040553 0.010827 0.024535
v -0.040553 0.044607 -0.031234
v -0.040553 0.010827 -0.031234
v -0.024662 0.010827 -0.049495
v -0.022211 -0.151420 -0.022477
v -0.017042 -0.151420 0.021718
v -0.024662 0.044607 -0.049495
v 0.039755 0.044607 0.024535
v 0.039755 0.044607 -0.031234
v 0.023865 0.062868 0.024535
v 0.023865 0.062868 -0.031234
v 0.023865 0.044607 -0.049495
v -0.024662 0.044607 -0.049495
v -0.024662 0.062868 0.024535
v -0.024662 0.062868 -0.031234
v -0.040553 0.044607 -0.031234
v -0.040553 0.044607 0.024535
v -0.024662 0.044607 0.042796
v 0.023865 0.044607 0.042796
v 0.145830 0.023315 -0.026242
v 0.168409 -0.005354 -0.031590
v 0.149922 0.023315 -0.017696
v 0.158260 -0.002640 -0.042743
v 0.189106 0.005596 -0.047874
v 0.178566 0.007274 -0.067013
v 0.178566 0.039356 -0.067013
v 0.189106 0.041034 -0.047874
v 0.158260 0.049270 -0.042743
v 0.168409 0.051984 -0.031590
v 0.145830 0.023315 -0.026242
v 0.149922 0.023315 -0.017696
v -0.169205 0.051984 -0.031590
v -0.150718 0.023315 -0.017696
v -0.146627 0.023315 -0.026242
v -0.159057 0.049270 -0.042743
v -0.189903 0.041034 -0.047874
v -0.179363 0.039356 -0.067013
v -0.189903 0.005596 -0.047874
v -0.179363 0.007274 -0.067013
v -0.159057 -0.002640 -0.042743
v -0.169205 -0.005354 -0.031590
v -0.146627 0.023315 -0.026242
v -0.150718 0.023315 -0.017696
v -0.152220 0.040408 0.109517
v -0.169205 0.051984 -0.031590
v -0.168188 0.033879 0.109524
v -0.189903 0.041034 -0.047874
v -0.189903 0.005596 -0.047874
v -0.168188 0.012751 0.109524
v -0.169205 -0.005354 -0.031590
v -0.152220 0.006222 0.109517
v -0.150718 0.023315 -0.017696
v -0.142352 0.023315 0.109513
v -0.152220 0.040408 0.109517
v -0.169205 0.051984 -0.031590
v 0.023865 0.010827 -0.049495
v 0.039755 0.010827 -0.031234
v 0.021414 -0.151420 -0.022477
v 0.039755 0.010827 0.024535
v 0.016245 -0.151420 0.021718
v 0.021414 -0.151420 -0.022477
v -0.022211 -0.151420 -0.022477
v -0.024662 0.010827 -0.049495
v -0.024662 0.044607 -0.049495
v 0.023865 0.044607 -0.049495
v 0.039755 0.044607 -0.031234
v 0.039755 0.044607 0.024535
v 0.076572 0.031598 -0.014666
v 0.110469 0.032691 -0.058883
v 0.110469 0.013939 -0.058883
v 0.076572 0.015031 -0.014666
v 0.117236 0.008144 -0.041047
v 0.082556 0.009912 0.001091
v 0.117236 0.038485 -0.041047
v 0.076572 0.031598 -0.014666
v 0.082556 0.036718 0.001091
v 0.110469 0.032691 -0.058883
v 0.036302 0.036621 0.001059
v 0.076572 0.031598 -0.014666
v 0.036302 0.031539 -0.014583
v 0.082556 0.036718 0.001091
v 0.036302 0.010008 0.001059
v 0.076572 0.015031 -0.014666
v 0.082556 0.009912 0.001091
v 0.036302 0.015091 -0.014583
v 0.076572 0.031598 -0.014666
v 0.036302 0.031539 -0.014583
v -0.179363 0.007274 -0.067013
v -0.111266 0.032691 -0.058883
v -0.111266 0.013939 -0.058883
v -0.179363 0.039356 -0.067013
vt 0.500488 0.225586
vt 0.502441 0.221680
vt 0.498291 0.219238
vt 0.495605 0.225586
vt 0.493896 0.221680
vt 0.443604 0.213867
vt 0.478516 0.220215
vt 0.475586 0.212402
vt 0.444092 0.209473
vt 0.444336 0.205078
vt 0.479736 0.205566
vt 0.445068 0.201172
vt 0.484619 0.201172
vt 0.444824 0.195801
vt 0.484131 0.192383
vt 0.479004 0.187988
vt 0.443848 0.191895
vt 0.513672 0.212402
vt 0.495850 0.213867
vt 0.511719 0.219727
vt 0.497070 0.209473
vt 0.509277 0.206055
vt 0.499023 0.205078
vt 0.505371 0.200195
vt 0.499268 0.201172
vt 0.497803 0.197266
vt 0.507324 0.193359
vt 0.494629 0.193848
vt 0.509766 0.185547
vt 0.531250 0.203125
vt 0.517578 0.202637
vt 0.519043 0.207031
vt 0.532715 0.207031
vt 0.531250 0.211426
vt 0.517578 0.211914
vt 0.546875 0.198242
vt 0.535645 0.198242
vt 0.535645 0.201660
vt 0.547852 0.201660
vt 0.546875 0.205078
vt 0.535645 0.205078
vt 0.529297 0.214844
vt 0.515625 0.215820
vt 0.528809 0.199219
vt 0.516113 0.198242
vt 0.528320 0.195313
vt 0.517578 0.193848
vt 0.535645 0.208984
vt 0.545410 0.212891
vt 0.535156 0.212891
vt 0.545410 0.208984
vt 0.545410 0.194336
vt 0.535645 0.194336
vt 0.631836 0.417969
vt 0.642090 0.377930
vt 0.640137 0.417969
vt 0.629883 0.377930
vt 0.629883 0.369141
vt 0.642090 0.369141
vt 0.646973 0.369141
vt 0.646973 0.377930
vt 0.660645 0.369141
vt 0.660645 0.377930
vt 0.665039 0.377930
vt 0.658691 0.417969
vt 0.647461 0.417969
vt 0.665039 0.369141
vt 0.643066 0.462402
vt 0.643066 0.441406
vt 0.637207 0.462402
vt 0.637207 0.441406
vt 0.637207 0.434570
vt 0.619141 0.434570
vt 0.619141 0.462402
vt 0.619141 0.441406
vt 0.613281 0.441406
vt 0.613281 0.462402
vt 0.619141 0.469238
vt 0.637207 0.469238
vt 0.489990 0.224121
vt 0.487305 0.215332
vt 0.487549 0.224121
vt 0.491211 0.215820
vt 0.488281 0.208496
vt 0.493408 0.208496
vt 0.493408 0.200195
vt 0.488525 0.199707
vt 0.491699 0.192871
vt 0.487793 0.193359
vt 0.490967 0.184570
vt 0.488525 0.184082
vt 0.606934 0.377930
vt 0.611816 0.377930
vt 0.613770 0.417969
vt 0.625488 0.377930
vt 0.625000 0.417969
vt 0.606445 0.417969
vt 0.595703 0.417969
vt 0.595215 0.377930
vt 0.595215 0.369141
vt 0.606934 0.369141
vt 0.611816 0.369141
vt 0.625488 0.369141
vn -0.000400 0.000000 1.000000
vn -0.862800 0.502400 -0.057300
vn -0.851900 0.520300 -0.059900
vn -0.997600 -0.000000 -0.069700
vn -0.997800 -0.000000 -0.065600
vn -0.377300 -0.925500 0.034300
vn 0.112800 -0.990700 0.076500
vn 0.817300 -0.555500 0.153000
vn 0.928400 -0.342700 0.143700
vn 0.817300 0.555500 0.153000
vn 0.928400 0.342700 0.143700
vn 0.523800 0.844400 0.112100
vn 0.375700 0.918900 0.120600
vn -0.145400 -0.363200 -0.920300
vn -0.118500 0.000000 -0.992900
vn -0.197400 -0.497600 -0.844600
vn -0.183500 -0.981000 -0.063500
vn -0.234100 -0.925000 0.299200
vn -0.145500 0.000000 0.989400
vn -0.153100 0.000000 0.988200
vn -0.234100 0.925000 0.299200
vn -0.183500 0.981000 -0.063500
vn -0.216700 0.925900 -0.309400
vn -0.141600 0.869300 -0.473600
vn 0.625800 -0.564100 0.538700
vn 0.625800 -0.564000 0.538700
vn 0.757900 0.000000 0.652400
vn 0.625800 0.564100 0.538700
vn 0.625800 0.564000 0.538700
vn -0.001700 0.587600 0.809200
vn -0.001800 0.587800 0.809000
vn -0.002200 0.000000 1.000000
vn -0.002000 -0.000000 1.000000
vn -0.001700 -0.587500 0.809200
vn -0.001800 -0.587800 0.809000
vn 0.000400 -0.000000 1.000000
vn 0.170800 0.984500 -0.039200
vn 0.141600 0.869300 -0.473600
vn 0.145500 0.000000 0.989400
vn 0.121400 0.566600 0.815000
vn 0.153100 0.000000 0.988200
vn 0.234100 -0.925000 0.299200
vn 0.183500 -0.981000 -0.063500
vn 0.216700 -0.925900 -0.309500
vn 0.141600 -0.869300 -0.473600
vn -0.069900 0.992600 0.099100
vn 0.286100 0.937900 -0.196100
vn -0.365400 0.867700 0.337100
vn -0.757900 0.000000 0.652400
vn -0.365400 -0.867600 0.337100
vn -0.069900 -0.992600 0.099100
vn 0.613100 -0.646500 -0.454000
vn 0.711200 -0.457300 -0.533900
vn 0.793600 0.000000 -0.608400
vn 0.002500 -0.587800 -0.809000
vn 0.002100 0.000000 -1.000000
vn 0.002400 -0.644800 -0.764400
vn 0.002300 -0.951000 0.309100
vn 0.002100 -0.900300 0.435300
vn 0.002200 0.000000 1.000000
vn 0.002000 0.000000 1.000000
vn 0.002100 0.900300 0.435300
vn 0.002300 0.951000 0.309100
vn 0.001800 0.951200 -0.308500
vn 0.002000 0.951100 -0.309000
vn 0.000000 -0.128800 0.991700
vn -0.412300 -0.067200 0.908600
vn 0.412300 -0.067200 0.908600
vn 0.414500 0.000000 0.910100
vn -0.414500 0.000000 0.910100
vn -0.936600 0.000000 0.350500
vn -0.934400 -0.062400 0.350800
vn -0.936600 0.000000 -0.350500
vn -0.934400 -0.061200 -0.350900
vn -0.753100 -0.057800 -0.655400
vn -0.989700 -0.139800 0.030900
vn -0.976000 -0.144300 0.163300
vn -0.754400 0.000000 -0.656500
vn 0.732600 0.637400 0.238800
vn 0.732600 0.637400 -0.238800
vn 0.369500 0.865700 0.337700
vn 0.369500 0.865700 -0.337700
vn 0.260800 0.682600 -0.682600
vn -0.260800 0.682600 -0.682600
vn -0.369500 0.865700 0.337700
vn -0.369500 0.865700 -0.337700
vn -0.732500 0.637500 -0.238800
vn -0.732500 0.637500 0.238800
vn -0.260800 0.682600 0.682600
vn 0.260800 0.682600 0.682600
vn -0.697000 -0.617100 0.365200
vn -0.272300 -0.962200 -0.003300
vn -0.707400 -0.620300 0.338700
vn -0.262700 -0.962900 0.062400
vn 0.637500 -0.629200 -0.444700
vn 0.741900 -0.495200 -0.452000
vn 0.741900 0.495200 -0.452000
vn 0.637500 0.629200 -0.444700
vn -0.262700 0.962900 0.062400
vn -0.272300 0.962200 -0.003300
vn -0.697000 0.617100 0.365200
vn -0.707400 0.620300 0.338700
vn 0.272400 0.962200 -0.003300
vn 0.707500 0.620300 0.338700
vn 0.697000 0.617100 0.365200
vn 0.262700 0.962900 0.062400
vn -0.637500 0.629200 -0.444700
vn -0.741900 0.495200 -0.452000
vn -0.637500 -0.629200 -0.444700
vn -0.741900 -0.495200 -0.452000
vn 0.262700 -0.962900 0.062400
vn 0.272400 -0.962200 -0.003300
vn 0.697000 -0.617100 0.365200
vn 0.707500 -0.620300 0.338700
vn -0.375700 0.918900 0.120600
vn -0.523800 0.844400 0.112100
vn -0.817300 0.555500 0.153000
vn -0.928400 0.342700 0.143700
vn -0.928400 -0.342700 0.143700
vn -0.817300 -0.555500 0.153000
vn -0.112800 -0.990700 0.076500
vn 0.377300 -0.925500 0.034300
vn 0.997600 0.000000 -0.069700
vn 0.997800 0.000000 -0.065600
vn 0.862800 0.502300 -0.057300
vn 0.851900 0.520300 -0.059900
vn 0.407200 -0.077000 -0.910100
vn 0.934400 -0.061200 -0.350900
vn 0.989700 -0.139800 0.030900
vn 0.934400 -0.062400 0.350700
vn 0.976000 -0.144300 0.163300
vn 0.000000 -0.164300 -0.986400
vn 0.000000 -0.082000 -0.996600
vn 0.000000 0.000000 -1.000000
vn 0.414500 0.000000 -0.910100
vn 0.936600 0.000000 -0.350400
vn 0.936600 0.000000 0.350400
vn -0.793600 0.000000 -0.608400
vn -0.711200 -0.457300 -0.533900
vn -0.613100 -0.646500 -0.454000
vn -0.286100 -0.937900 -0.196200
vn -0.286100 -0.937900 -0.196100
vn -0.286100 0.937900 -0.196100
vn -0.002000 0.951100 -0.308800
vn -0.001800 0.951200 -0.308500
vn -0.002000 0.951100 -0.309000
vn -0.001800 0.951200 -0.308400
vn -0.002000 -0.951100 -0.308900
vn -0.002400 -0.644800 -0.764400
vn -0.001800 -0.951300 -0.308400
vn -0.002500 -0.587800 -0.809000
vn -0.002100 0.000000 -1.000000
vn 0.118500 0.000000 -0.992900
usemtl Material__32.001
s 1
f 1/1/1 2/2/1 3/3/1
f 3/3/1 4/4/1 1/1/1
f 3/3/1 5/5/1 4/4/1
f 6/6/2 7/7/3 8/8/4
f 6/6/2 8/8/4 9/9/5
f 8/8/4 10/10/6 9/9/5
f 10/10/6 8/8/4 11/11/7
f 11/11/7 12/12/8 10/10/6
f 12/12/8 11/11/7 13/13/9
f 13/13/9 14/14/10 12/12/8
f 14/14/10 13/13/9 15/15/11
f 14/14/10 15/15/11 16/16/12
f 14/14/10 16/16/12 17/17/13
f 18/18/14 19/19/15 20/20/15
f 18/18/14 21/21/16 19/19/15
f 21/21/16 18/18/14 22/22/17
f 21/21/16 22/22/17 23/23/18
f 23/23/18 22/22/17 24/24/19
f 23/23/18 24/24/19 25/25/20
f 24/24/19 26/26/21 25/25/20
f 26/26/21 24/24/19 27/27/22
f 27/27/22 28/28/23 26/26/21
f 28/28/23 27/27/22 29/29/24
f 30/30/25 31/31/26 32/32/27
f 32/32/27 33/33/27 30/30/25
f 32/32/27 34/34/28 33/33/27
f 34/34/28 32/32/27 35/35/29
f 36/36/30 37/37/31 38/38/32
f 38/38/32 39/39/33 36/36/30
f 38/38/32 40/40/34 39/39/33
f 40/40/34 38/38/32 41/41/35
f 42/3/36 43/4/36 44/5/36
f 42/3/36 45/1/36 43/4/36
f 45/1/36 42/3/36 46/2/36
f 47/27/37 48/28/38 49/29/38
f 50/24/39 51/26/40 47/27/37
f 51/26/40 50/24/39 52/25/41
f 50/24/39 53/23/42 52/25/41
f 53/23/42 50/24/39 54/22/43
f 54/22/43 55/21/44 53/23/42
f 55/21/44 54/22/43 56/18/45
f 57/35/46 58/42/47 59/43/47
f 58/42/47 57/35/46 60/34/48
f 61/32/49 60/34/48 57/35/46
f 60/34/48 61/32/49 62/33/49
f 62/33/49 61/32/49 63/30/50
f 64/31/51 63/30/50 61/32/49
f 63/30/50 64/31/51 65/44/52
f 66/45/53 65/44/52 64/31/51
f 65/44/52 66/45/53 67/46/54
f 67/46/54 66/45/53 68/47/54
f 69/48/55 70/49/56 71/50/56
f 70/49/56 69/48/55 72/51/57
f 73/41/58 72/51/57 69/48/55
f 72/51/57 73/41/58 74/40/59
f 75/38/60 74/40/59 73/41/58
f 74/40/59 75/38/60 76/39/61
f 75/38/60 77/36/62 76/39/61
f 77/36/62 75/38/60 78/37/63
f 77/36/62 78/37/63 79/52/64
f 80/53/65 79/52/64 78/37/63
f 81/54/66 82/55/67 83/56/66
f 82/55/67 81/54/66 84/57/68
f 85/58/69 82/55/67 84/57/68
f 85/58/69 86/59/70 82/55/67
f 82/55/67 86/59/70 87/60/71
f 82/55/67 87/60/71 88/61/72
f 89/62/73 88/61/72 87/60/71
f 88/61/72 89/62/73 90/63/74
f 89/62/73 91/64/75 90/63/74
f 91/64/75 92/65/76 90/63/74
f 92/65/76 88/61/72 90/63/74
f 88/61/72 92/65/76 93/66/77
f 88/61/72 93/66/77 82/55/67
f 91/64/75 89/62/73 94/67/78
f 95/68/79 96/69/80 97/70/81
f 97/70/81 96/69/80 98/71/82
f 99/72/83 98/71/82 96/69/80
f 99/72/83 100/73/84 98/71/82
f 101/74/85 97/70/81 98/71/82
f 101/74/85 98/71/82 102/75/86
f 102/75/86 98/71/82 100/73/84
f 100/73/84 103/76/87 102/75/86
f 101/74/85 102/75/86 103/76/87
f 103/76/87 104/77/88 101/74/85
f 104/77/88 105/78/89 101/74/85
f 106/79/90 101/74/85 105/78/89
f 101/74/85 106/79/90 97/70/81
f 95/68/79 97/70/81 106/79/90
f 107/80/91 108/81/92 109/82/93
f 108/81/92 107/80/91 110/83/94
f 110/83/94 111/84/95 108/81/92
f 111/84/95 110/83/94 112/85/96
f 113/86/97 111/84/95 112/85/96
f 111/84/95 113/86/97 114/87/98
f 113/86/97 115/88/99 114/87/98
f 115/88/99 116/89/100 114/87/98
f 115/88/99 117/90/101 116/89/100
f 116/89/100 117/90/101 118/91/102
f 119/89/103 120/91/104 121/90/105
f 119/89/103 121/90/105 122/88/106
f 122/88/106 123/87/107 119/89/103
f 123/87/107 122/88/106 124/86/108
f 125/84/109 123/87/107 124/86/108
f 125/84/109 124/86/108 126/85/110
f 127/83/111 125/84/109 126/85/110
f 125/84/109 127/83/111 128/81/112
f 129/80/113 128/81/112 127/83/111
f 128/81/112 129/80/113 130/82/114
f 131/17/115 132/16/116 133/14/117
f 134/15/118 133/14/117 132/16/116
f 135/13/119 133/14/117 134/15/118
f 133/14/117 135/13/119 136/12/120
f 137/11/121 136/12/120 135/13/119
f 136/12/120 137/11/121 138/10/122
f 139/8/123 138/10/122 137/11/121
f 138/10/122 139/8/123 140/9/124
f 140/9/124 139/8/123 141/6/125
f 139/8/123 142/7/126 141/6/125
f 143/92/127 144/93/128 145/94/129
f 146/95/130 145/94/129 144/93/128
f 146/95/130 147/96/131 145/94/129
f 146/95/130 84/57/68 147/96/131
f 143/92/127 148/97/132 149/98/132
f 149/98/132 150/99/133 143/92/127
f 150/99/133 151/100/134 143/92/127
f 143/92/127 151/100/134 152/101/135
f 152/101/135 144/93/128 143/92/127
f 144/93/128 152/101/135 153/102/136
f 146/95/130 144/93/128 153/102/136
f 154/103/137 146/95/130 153/102/136
f 146/95/130 154/103/137 84/57/68
f 85/58/69 84/57/68 154/103/137
f 155/46/138 156/47/138 157/45/139
f 157/45/139 158/44/140 155/46/138
f 159/31/141 158/44/140 157/45/139
f 158/44/140 159/31/141 160/30/142
f 161/35/143 162/42/143 163/34/143
f 162/42/143 161/35/143 164/43/143
f 165/37/144 166/52/145 167/53/146
f 165/37/144 168/36/147 166/52/145
f 169/41/148 170/51/149 171/40/150
f 170/51/149 169/41/148 172/48/151
f 172/48/151 173/49/152 170/51/149
f 173/49/152 172/48/151 174/50/152
f 175/18/153 176/19/153 177/21/153
f 176/19/153 175/18/153 178/20/153
