# Blender v2.76 (sub 0) OBJ File: 'jeep.blend'
# www.blender.org
mtllib wheel.mtl
v -0.278840 0.092841 -0.645718
v -0.230455 0.291079 -0.637373
v -0.230455 0.099719 -0.693561
v -0.278840 0.271000 -0.593406
v -0.278840 -0.092840 -0.645718
v -0.278840 0.092841 -0.645718
v -0.230455 -0.099719 -0.693561
v 0.260209 -0.458856 -0.529548
v -0.230455 -0.458856 -0.529548
v -0.230455 -0.291078 -0.637372
v 0.260209 -0.291078 -0.637372
v 0.260209 -0.099719 -0.693561
v 0.260209 0.099719 -0.693561
v 0.260209 0.291079 -0.637373
v -0.230455 0.458857 -0.529549
v 0.260209 0.458857 -0.529549
v -0.278840 0.271000 -0.593406
v -0.278840 0.427205 -0.493019
v -0.278840 -0.092840 -0.645718
v -0.278840 -0.270999 -0.593405
v -0.278840 -0.270999 -0.593405
v -0.278840 -0.427203 -0.493019
v -0.230455 -0.458856 -0.529548
v -0.230455 -0.589460 -0.378822
v -0.278840 -0.548798 -0.352691
v -0.278840 -0.427203 -0.493019
v -0.278840 -0.625933 -0.183790
v -0.278840 -0.548798 -0.352691
v -0.230455 -0.672310 -0.197407
v 0.260209 -0.589460 -0.378822
v 0.260209 -0.458856 -0.529548
v 0.260209 -0.672310 -0.197407
v 0.260209 -0.700693 0.000001
v -0.230455 -0.700693 0.000001
v -0.278840 -0.625933 -0.183790
v -0.278840 -0.652358 0.000001
v -0.230455 -0.099718 0.693563
v -0.278840 0.092841 0.645719
v -0.278840 -0.092839 0.645719
v -0.230455 0.099720 0.693563
v -0.278840 -0.092839 0.645719
v -0.278840 -0.270999 0.593407
v -0.230455 -0.291078 0.637374
v 0.260209 -0.099718 0.693563
v 0.260209 -0.291078 0.637374
v 0.260209 0.099720 0.693563
v 0.260209 0.291080 0.637374
v -0.230455 0.291080 0.637374
v 0.260209 0.458858 0.529550
v -0.230455 0.458858 0.529550
v 0.260209 0.589462 0.378824
v -0.230455 0.589462 0.378824
v -0.278840 0.548800 0.352693
v -0.278840 0.427205 0.493021
v -0.278840 0.271001 0.593407
v -0.278840 0.427205 0.493021
v -0.278840 0.092841 0.645719
v -0.278840 0.271001 0.593407
v -0.278840 0.625935 0.183792
v -0.278840 0.548800 0.352693
v -0.230455 0.589462 0.378824
v -0.230455 0.672312 0.197409
v -0.230455 0.700695 0.000001
v -0.278840 0.625935 0.183792
v -0.278840 0.652360 0.000001
v -0.278840 0.625935 -0.183791
v -0.278840 0.652360 0.000001
v -0.230455 0.672312 -0.197408
v 0.260209 0.589462 0.378824
v 0.260209 0.672312 0.197409
v 0.260209 0.700695 0.000001
v 0.260209 0.672312 -0.197408
v 0.260209 0.589462 -0.378823
v -0.230455 0.589462 -0.378823
v 0.260209 0.458857 -0.529549
v -0.230455 0.458857 -0.529549
v -0.278840 0.548800 -0.352692
v -0.278840 0.427205 -0.493019
v -0.278840 0.625935 -0.183791
v -0.278840 0.548800 -0.352692
v -0.230455 -0.700693 0.000001
v -0.278840 -0.625933 0.183792
v -0.278840 -0.652358 0.000001
v -0.230455 -0.672310 0.197409
v 0.260209 -0.291078 0.637374
v -0.230455 -0.291078 0.637374
v -0.230455 -0.458856 0.529550
v 0.260209 -0.458856 0.529550
v -0.230455 -0.589460 0.378824
v 0.260209 -0.589460 0.378824
v 0.260209 -0.672310 0.197409
v 0.260209 -0.700693 0.000001
v -0.278840 -0.625933 0.183792
v -0.278840 -0.548798 0.352693
v -0.278840 -0.548798 0.352693
v -0.278840 -0.427203 0.493020
v -0.278840 -0.270999 0.593407
v -0.278840 -0.427203 0.493020
v -0.278840 0.548800 0.352693
v -0.316964 0.292356 0.337396
v -0.278840 0.427205 0.493021
v -0.316964 0.375568 0.241363
v -0.316964 0.428354 0.125777
v -0.278840 0.625935 0.183792
v -0.316964 0.446438 0.000001
v -0.278840 0.652360 0.000001
v -0.316964 0.428354 -0.125776
v -0.278840 0.625935 -0.183791
v -0.316964 0.375568 -0.241362
v -0.278840 0.548800 -0.352692
v -0.278840 0.427205 -0.493019
v -0.316964 0.292355 -0.337394
v -0.278840 0.271000 -0.593406
v -0.316964 0.185457 -0.406093
v -0.278840 0.092841 -0.645718
v -0.316964 0.063535 -0.441893
v -0.278840 -0.092840 -0.645718
v -0.316964 -0.063534 -0.441892
v -0.278840 -0.270999 -0.593405
v -0.316964 -0.185456 -0.406093
v -0.316964 -0.292354 -0.337394
v -0.278840 -0.427203 -0.493019
v -0.278840 -0.548798 -0.352691
v -0.316964 -0.375566 -0.241361
v -0.278840 -0.625933 -0.183790
v -0.316964 -0.428353 -0.125775
v -0.316964 -0.446437 0.000001
v -0.278840 -0.652358 0.000001
v -0.278840 -0.625933 0.183792
v -0.316964 -0.428353 0.125777
v -0.278840 -0.548798 0.352693
v -0.316964 -0.375566 0.241363
v -0.278840 -0.427203 0.493020
v -0.316964 -0.292354 0.337396
v -0.278840 -0.270999 0.593407
v -0.316964 -0.185456 0.406095
v -0.278840 -0.092839 0.645719
v -0.316964 -0.063534 0.441894
v -0.316964 0.063536 0.441894
v -0.278840 0.092841 0.645719
v -0.316964 0.185458 0.406095
v -0.278840 0.271001 0.593407
v -0.278839 0.341601 0.156004
v -0.278839 0.371715 -0.053444
v -0.278839 0.000001 0.000001
v -0.278839 0.283812 -0.245924
v -0.278839 0.105801 -0.360324
v -0.278839 -0.105800 -0.360324
v -0.278839 -0.283811 -0.245923
v -0.278839 -0.371714 -0.053443
v -0.278839 -0.341599 0.156004
v -0.278839 -0.203030 0.315922
v -0.278839 0.000001 0.375538
v -0.278839 0.203031 0.315922
v -0.278839 -0.203030 0.315922
v -0.278839 -0.341599 0.156004
v -0.316964 -0.375566 0.241363
v -0.316964 -0.292354 0.337396
v -0.316964 -0.185456 0.406095
v -0.278839 0.000001 0.375538
v -0.316964 -0.063534 0.441894
v -0.316964 0.063536 0.441894
v -0.316964 0.185458 0.406095
v -0.278839 0.203031 0.315922
v -0.316964 0.292356 0.337396
v -0.278839 0.341601 0.156004
v -0.316964 0.375568 0.241363
v -0.316964 0.428354 0.125777
v -0.316964 0.446438 0.000001
v -0.278839 0.371715 -0.053444
v -0.316964 0.428354 -0.125776
v -0.278839 0.283812 -0.245924
v -0.316964 0.375568 -0.241362
v -0.316964 0.292355 -0.337394
v -0.278839 0.105801 -0.360324
v -0.316964 0.185457 -0.406093
v -0.316964 0.063535 -0.441893
v -0.316964 -0.063534 -0.441892
v -0.278839 -0.105800 -0.360324
v -0.316964 -0.185456 -0.406093
v -0.316964 -0.292354 -0.337394
v -0.278839 -0.283811 -0.245923
v -0.316964 -0.375566 -0.241361
v -0.278839 -0.371714 -0.053443
v -0.316964 -0.428353 -0.125775
v -0.316964 -0.446437 0.000001
v -0.316964 -0.428353 0.125777
v 0.260209 -0.099718 0.693563
v 0.311003 -0.185456 0.406095
v 0.311003 -0.063534 0.441894
v 0.311003 0.063536 0.441894
v 0.260209 0.099720 0.693563
v 0.260209 0.291080 0.637374
v 0.311003 0.185458 0.406095
v 0.311003 0.292356 0.337396
v 0.260209 0.458858 0.529550
v 0.260209 0.589462 0.378824
v 0.311003 0.375568 0.241363
v 0.260209 0.672312 0.197409
v 0.311003 0.428354 0.125777
v 0.311003 0.446438 0.000001
v 0.260209 0.700695 0.000001
v 0.311003 0.428354 -0.125776
v 0.260209 0.672312 -0.197408
v 0.311003 0.375568 -0.241362
v 0.260209 0.589462 -0.378823
v 0.260209 0.458857 -0.529549
v 0.311003 0.292355 -0.337394
v 0.260209 0.291079 -0.637373
v 0.311003 0.185457 -0.406093
v 0.311003 0.063535 -0.441893
v 0.260209 0.099719 -0.693561
v 0.260209 -0.099719 -0.693561
v 0.311003 -0.063534 -0.441892
v 0.260209 -0.291078 -0.637372
v 0.311003 -0.185456 -0.406093
v 0.311003 -0.292354 -0.337394
v 0.260209 -0.458856 -0.529548
v 0.260209 -0.589460 -0.378822
v 0.311003 -0.375566 -0.241361
v 0.311003 -0.428353 -0.125775
v 0.260209 -0.672310 -0.197407
v 0.260209 -0.700693 0.000001
v 0.311003 -0.446437 0.000001
v 0.311003 -0.428353 0.125777
v 0.260209 -0.672310 0.197409
v 0.260209 -0.589460 0.378824
v 0.311003 -0.375566 0.241363
v 0.260209 -0.458856 0.529550
v 0.311003 -0.292354 0.337396
v 0.260209 -0.291078 0.637374
v 0.311003 -0.292354 -0.337394
v 0.225985 -0.105800 -0.360324
v 0.225985 -0.283811 -0.245923
v 0.311003 -0.375566 -0.241361
v 0.225985 -0.371714 -0.053443
v 0.311003 -0.428353 -0.125775
v 0.311003 -0.446437 0.000001
v 0.225985 -0.341599 0.156004
v 0.311003 -0.428353 0.125777
v 0.311003 -0.375566 0.241363
v 0.225985 -0.203030 0.315922
v 0.311003 -0.292354 0.337396
v 0.311003 -0.185456 0.406095
v 0.311003 -0.063534 0.441894
v 0.225985 0.000001 0.375538
v 0.311003 0.063536 0.441894
v 0.225985 0.203031 0.315922
v 0.311003 0.185458 0.406095
v 0.311003 0.292356 0.337396
v 0.225985 0.341601 0.156004
v 0.311003 0.375568 0.241363
v 0.311003 0.428354 0.125777
v 0.311003 0.446438 0.000001
v 0.225985 0.371715 -0.053444
v 0.311003 0.428354 -0.125776
v 0.225985 0.283812 -0.245924
v 0.311003 0.375568 -0.241362
v 0.311003 0.292355 -0.337394
v 0.225985 0.105801 -0.360324
v 0.311003 0.185457 -0.406093
v 0.311003 0.063535 -0.441893
v 0.311003 -0.063534 -0.441892
v 0.311003 -0.185456 -0.406093
v 0.225985 0.341601 0.156004
v 0.225985 0.000001 0.000001
v 0.225985 0.371715 -0.053444
v 0.225985 0.283812 -0.245924
v 0.225985 0.105801 -0.360324
v 0.225985 -0.105800 -0.360324
v 0.225985 -0.283811 -0.245923
v 0.225985 -0.371714 -0.053443
v 0.225985 -0.341599 0.156004
v 0.225985 -0.203030 0.315922
v 0.225985 0.000001 0.375538
v 0.225985 0.203031 0.315922
vt 0.094727 0.861328
vt 0.047363 0.873535
vt 0.096191 0.873535
vt 0.048828 0.861328
vt 0.144043 0.861328
vt 0.097656 0.861328
vt 0.145020 0.873535
vt 0.233887 0.995605
vt 0.233887 0.873535
vt 0.189941 0.873535
vt 0.189941 0.995605
vt 0.145020 0.995605
vt 0.096191 0.995605
vt 0.047363 0.995605
vt 0.001465 0.873535
vt 0.001465 0.995605
vt 0.044922 0.861328
vt 0.003418 0.861328
vt 0.146484 0.861328
vt 0.188477 0.861328
vt 0.191895 0.861328
vt 0.232422 0.861328
vt 0.302979 0.784546
vt 0.239014 0.780762
vt 0.272705 0.819580
vt 0.259766 0.756836
vt 0.272949 0.728027
vt 0.322266 0.742432
vt 0.277344 0.696533
vt 0.328857 0.696533
vt 0.272949 0.665283
vt 0.322266 0.650879
vt 0.259766 0.636475
vt 0.302979 0.608643
vt 0.272705 0.573730
vt 0.239014 0.612549
vt 0.233765 0.548584
vt 0.212402 0.595459
vt 0.189331 0.535645
vt 0.182007 0.586426
vt 0.142944 0.535645
vt 0.150269 0.586426
vt 0.098572 0.548584
vt 0.119934 0.595459
vt 0.093262 0.612549
vt 0.059631 0.573730
vt 0.029297 0.608643
vt 0.072510 0.636475
vt 0.010063 0.650879
vt 0.059326 0.665283
vt 0.054840 0.696533
vt 0.003477 0.696533
vt 0.010063 0.742432
vt 0.059326 0.728027
vt 0.029297 0.784546
vt 0.072510 0.756836
vt 0.059631 0.819580
vt 0.093262 0.780762
vt 0.098572 0.844604
vt 0.119934 0.797852
vt 0.142944 0.857666
vt 0.150269 0.806763
vt 0.182007 0.806763
vt 0.189331 0.857666
vt 0.212402 0.797852
vt 0.233765 0.844604
vt 0.251221 0.735596
vt 0.258789 0.683350
vt 0.166138 0.696533
vt 0.236938 0.635254
vt 0.192505 0.606689
vt 0.139771 0.606689
vt 0.095398 0.635254
vt 0.073425 0.683350
vt 0.080933 0.735596
vt 0.115540 0.775391
vt 0.166138 0.790283
vt 0.216797 0.775391
vt 0.142822 0.856812
vt 0.189453 0.856812
vt 0.233154 0.843994
vt 0.272217 0.818848
vt 0.302490 0.783936
vt 0.321533 0.741943
vt 0.328125 0.696777
vt 0.321289 0.650879
vt 0.302246 0.608887
vt 0.271973 0.574219
vt 0.233643 0.549316
vt 0.188965 0.536377
vt 0.143311 0.536377
vt 0.098694 0.549316
vt 0.060303 0.574219
vt 0.029816 0.609375
vt 0.010864 0.650879
vt 0.004238 0.696777
vt 0.010857 0.742432
vt 0.030060 0.784302
vt 0.059937 0.818848
vt 0.099121 0.843994
vn -0.703100 0.200300 -0.682300
vn -0.370700 0.385800 -0.844800
vn -0.370700 0.132200 -0.919300
vn -0.703100 0.000000 -0.711100
vn -0.370700 -0.132200 -0.919300
vn 0.000000 -0.540600 -0.841300
vn -0.367500 -0.502800 -0.782400
vn -0.370700 -0.385800 -0.844800
vn 0.000000 -0.415400 -0.909600
vn 0.000000 -0.142300 -0.989800
vn 0.000000 0.142300 -0.989800
vn 0.000000 0.415400 -0.909600
vn -0.367500 0.502800 -0.782400
vn 0.000000 0.540600 -0.841300
vn -0.703100 0.384400 -0.598200
vn -0.703100 -0.200300 -0.682300
vn -0.703100 -0.384400 -0.598200
vn -0.367500 -0.702900 -0.609000
vn -0.370700 -0.781300 -0.502100
vn -0.703100 -0.537400 -0.465700
vn -0.703100 -0.646800 -0.295400
vn -0.370700 -0.891100 -0.261700
vn 0.000000 -0.841300 -0.540600
vn 0.000000 -0.755800 -0.654900
vn 0.000000 -0.959500 -0.281700
vn 0.000000 -0.989800 -0.142300
vn -0.367500 -0.920600 -0.132400
vn -0.703100 -0.703800 -0.101200
vn -0.370700 -0.132200 0.919300
vn -0.703100 0.000000 0.711100
vn -0.370700 0.132200 0.919300
vn -0.703100 -0.200300 0.682300
vn -0.367500 -0.262000 0.892400
vn 0.000000 -0.142300 0.989800
vn 0.000000 -0.281700 0.959500
vn 0.000000 0.142300 0.989800
vn 0.000000 0.415400 0.909600
vn -0.370700 0.385800 0.844800
vn 0.000000 0.654900 0.755700
vn -0.370700 0.608200 0.701900
vn 0.000000 0.755800 0.654900
vn -0.367400 0.702900 0.609000
vn -0.703100 0.537400 0.465700
vn -0.703100 0.384400 0.598200
vn -0.703100 0.200300 0.682300
vn -0.703100 0.646800 0.295400
vn -0.367500 0.846000 0.386400
vn -0.370700 0.891100 0.261700
vn -0.370700 0.928700 0.000000
vn -0.703100 0.703800 0.101200
vn -0.703100 0.703800 -0.101200
vn -0.370700 0.891100 -0.261700
vn 0.000000 0.909600 0.415400
vn 0.000000 0.959500 0.281700
vn 0.000000 1.000000 0.000000
vn 0.000000 0.959500 -0.281700
vn 0.000000 0.841300 -0.540600
vn -0.370700 0.781300 -0.502100
vn 0.000000 0.755700 -0.654900
vn -0.367500 0.702900 -0.609000
vn -0.703100 0.537400 -0.465700
vn -0.703100 0.646800 -0.295400
vn -0.367500 -0.920600 0.132400
vn -0.703100 -0.703800 0.101200
vn -0.370700 -0.891100 0.261700
vn 0.000000 -0.540600 0.841300
vn -0.367500 -0.502800 0.782400
vn -0.370700 -0.608200 0.701900
vn 0.000000 -0.654900 0.755700
vn -0.370700 -0.781300 0.502100
vn 0.000000 -0.841300 0.540600
vn 0.000000 -0.959500 0.281700
vn 0.000000 -0.989800 0.142300
vn -0.703100 -0.646800 0.295400
vn -0.703100 -0.537400 0.465700
vn -0.703100 -0.384400 0.598200
vn -0.983300 0.153100 0.098400
vn -0.983300 0.119200 0.137600
vn -0.983300 0.174700 0.051300
vn -0.983300 0.182000 -0.000000
vn -0.983300 0.174700 -0.051300
vn -0.983300 0.153100 -0.098400
vn -0.983300 0.119200 -0.137600
vn -0.983300 0.075600 -0.165600
vn -0.983300 0.025900 -0.180200
vn -0.983300 -0.025900 -0.180200
vn -0.983300 -0.075600 -0.165600
vn -0.983300 -0.119200 -0.137600
vn -0.983300 -0.153100 -0.098400
vn -0.983300 -0.174700 -0.051300
vn -0.983300 -0.182000 -0.000000
vn -0.983300 -0.174700 0.051300
vn -0.983300 -0.153100 0.098400
vn -0.983300 -0.119200 0.137600
vn -0.983300 -0.075600 0.165600
vn -0.983300 -0.025900 0.180200
vn -0.983300 0.025900 0.180200
vn -0.983300 0.075600 0.165600
vn -1.000000 0.000000 0.000000
vn -0.896200 0.239900 -0.373200
vn -0.896200 0.403600 -0.184300
vn -0.896400 0.361400 -0.256600
vn -0.896400 0.305400 -0.321200
vn -0.896400 0.165300 -0.411200
vn -0.896200 -0.000000 -0.443700
vn -0.896400 0.083200 -0.435300
vn -0.896400 -0.083200 -0.435300
vn -0.896400 -0.165300 -0.411200
vn -0.896200 -0.239900 -0.373200
vn -0.896400 -0.305400 -0.321200
vn -0.896200 -0.403600 -0.184300
vn -0.896400 -0.361400 -0.256600
vn -0.896400 -0.430600 -0.105100
vn -0.896400 -0.442700 -0.020400
vn -0.896200 -0.439100 0.063100
vn -0.896400 -0.419100 0.144300
vn -0.896200 -0.335300 0.290500
vn -0.896400 -0.383500 0.222200
vn -0.896400 -0.274500 0.348000
vn -0.896200 -0.125000 0.425700
vn -0.896400 -0.202500 0.394200
vn -0.896400 -0.042800 0.441100
vn -0.896400 0.042800 0.441100
vn -0.896200 0.125000 0.425700
vn -0.896400 0.202500 0.394200
vn -0.896400 0.274500 0.348000
vn -0.896200 0.335300 0.290500
vn -0.896400 0.383500 0.222200
vn -0.896200 0.439100 0.063100
vn -0.896400 0.419100 0.144300
vn -0.896400 0.442700 -0.020400
vn -0.896400 0.430600 -0.105100
vn 0.980600 -0.027900 0.193900
vn 0.980600 -0.081400 0.178200
vn 0.980600 0.027900 0.193900
vn 0.980600 0.081400 0.178200
vn 0.980600 0.128300 0.148100
vn 0.980600 0.164800 0.105900
vn 0.980600 0.188000 0.055200
vn 0.980600 0.195900 0.000000
vn 0.980600 0.188000 -0.055200
vn 0.980600 0.164800 -0.105900
vn 0.980600 0.128300 -0.148100
vn 0.980600 0.081400 -0.178200
vn 0.980600 0.027900 -0.193900
vn 0.980600 -0.027900 -0.193900
vn 0.980600 -0.081400 -0.178200
vn 0.980600 -0.128300 -0.148100
vn 0.980600 -0.164800 -0.105900
vn 0.980600 -0.188000 -0.055200
vn 0.980600 -0.195900 -0.000000
vn 0.980600 -0.188000 0.055200
vn 0.980600 -0.164800 0.105900
vn 0.980600 -0.128300 0.148100
vn 0.669600 0.465400 0.578900
vn 0.680000 0.206600 0.703500
vn 0.680000 0.554100 0.480200
vn 0.669600 0.639200 0.378300
vn 0.680000 0.725800 0.104400
vn 0.669600 0.704500 0.235300
vn 0.669600 0.742300 -0.027300
vn 0.680000 0.667000 -0.304600
vn 0.669600 0.719900 -0.182900
vn 0.669600 0.609700 -0.424300
vn 0.680000 0.396400 -0.616800
vn 0.669600 0.506700 -0.543100
vn 0.669600 0.283500 -0.686500
vn 0.669600 0.132700 -0.730800
vn 0.680000 -0.000000 -0.733200
vn 0.669600 -0.132700 -0.730800
vn 0.680000 -0.396400 -0.616800
vn 0.669600 -0.283500 -0.686500
vn 0.669600 -0.506700 -0.543100
vn 0.680000 -0.667000 -0.304600
vn 0.669600 -0.609700 -0.424300
vn 0.669600 -0.719900 -0.182900
vn 0.669600 -0.742300 -0.027300
vn 0.680000 -0.725800 0.104400
vn 0.669600 -0.704500 0.235300
vn 0.680000 -0.554100 0.480200
vn 0.669600 -0.639200 0.378300
vn 0.669600 -0.465400 0.578900
vn 0.680000 -0.206600 0.703500
vn 0.669600 -0.333200 0.663800
vn 0.669600 -0.078600 0.738600
vn 0.669600 0.078600 0.738600
vn 0.669600 0.333200 0.663800
vn 1.000000 -0.000000 0.000000
usemtl Material__32.001
s 1
f 1/1/1 2/2/2 3/3/3
f 2/2/2 1/1/1 4/4/1
f 3/3/3 5/5/4 6/6/4
f 5/5/4 3/3/3 7/7/5
f 8/8/6 9/9/7 10/10/8
f 8/8/6 10/10/8 11/11/9
f 7/7/5 11/11/9 10/10/8
f 11/11/9 7/7/5 12/12/10
f 12/12/10 7/7/5 3/3/3
f 12/12/10 3/3/3 13/13/11
f 2/2/2 13/13/11 3/3/3
f 13/13/11 2/2/2 14/14/12
f 15/15/13 14/14/12 2/2/2
f 14/14/12 15/15/13 16/16/14
f 15/15/13 17/17/15 18/18/15
f 17/17/15 15/15/13 2/2/2
f 10/10/8 19/19/16 7/7/5
f 19/19/16 10/10/8 20/20/16
f 9/9/7 21/21/17 10/10/8
f 21/21/17 9/9/7 22/22/17
f 23/15/18 24/2/19 25/17/20
f 23/15/18 25/17/20 26/18/20
f 24/2/19 27/1/21 28/4/21
f 27/1/21 24/2/19 29/3/22
f 30/14/23 23/15/18 31/16/24
f 23/15/18 30/14/23 24/2/19
f 32/13/25 24/2/19 30/14/23
f 24/2/19 32/13/25 29/3/22
f 33/12/26 29/3/22 32/13/25
f 29/3/22 33/12/26 34/7/27
f 34/7/27 35/6/28 29/3/22
f 35/6/28 34/7/27 36/5/28
f 37/2/29 38/1/30 39/4/30
f 38/1/30 37/2/29 40/3/31
f 41/17/32 42/18/32 43/15/33
f 43/15/33 37/2/29 41/17/32
f 44/14/34 43/15/33 45/16/35
f 43/15/33 44/14/34 37/2/29
f 46/13/36 37/2/29 44/14/34
f 37/2/29 46/13/36 40/3/31
f 47/12/37 40/3/31 46/13/36
f 40/3/31 47/12/37 48/7/38
f 49/11/39 48/7/38 47/12/37
f 49/11/39 50/10/40 48/7/38
f 50/10/40 49/11/39 51/8/41
f 50/10/40 51/8/41 52/9/42
f 53/22/43 50/10/40 52/9/42
f 50/10/40 53/22/43 54/21/43
f 55/19/44 50/10/40 56/20/44
f 50/10/40 55/19/44 48/7/38
f 57/6/45 48/7/38 58/5/45
f 48/7/38 57/6/45 40/3/31
f 59/17/46 60/18/46 61/15/47
f 61/15/47 62/2/48 59/17/46
f 63/3/49 64/4/50 62/2/48
f 64/4/50 63/3/49 65/1/50
f 66/5/51 67/6/51 63/3/49
f 63/3/49 68/7/52 66/5/51
f 61/15/47 69/16/53 70/14/54
f 61/15/47 70/14/54 62/2/48
f 62/2/48 70/14/54 71/13/55
f 62/2/48 71/13/55 63/3/49
f 63/3/49 71/13/55 72/12/56
f 63/3/49 72/12/56 68/7/52
f 68/7/52 72/12/56 73/11/57
f 68/7/52 73/11/57 74/10/58
f 74/10/58 73/11/57 75/8/59
f 74/10/58 75/8/59 76/9/60
f 76/9/60 77/21/61 74/10/58
f 77/21/61 76/9/60 78/22/61
f 79/19/62 74/10/58 80/20/62
f 74/10/58 79/19/62 68/7/52
f 81/15/63 82/17/64 83/18/64
f 82/17/64 81/15/63 84/2/65
f 85/11/66 86/10/67 87/7/68
f 85/11/66 87/7/68 88/12/69
f 88/12/69 87/7/68 89/3/70
f 88/12/69 89/3/70 90/13/71
f 84/2/65 90/13/71 89/3/70
f 90/13/71 84/2/65 91/14/72
f 81/15/63 91/14/72 84/2/65
f 91/14/72 81/15/63 92/16/73
f 89/3/70 93/4/74 84/2/65
f 93/4/74 89/3/70 94/1/74
f 87/7/68 95/6/75 89/3/70
f 95/6/75 87/7/68 96/5/75
f 97/20/76 98/19/76 87/7/68
f 87/7/68 86/10/67 97/20/76
f 99/23/77 100/24/78 101/25/78
f 100/24/78 99/23/77 102/26/77
f 103/27/79 102/26/77 99/23/77
f 99/23/77 104/28/79 103/27/79
f 103/27/79 104/28/79 105/29/80
f 104/28/79 106/30/80 105/29/80
f 105/29/80 106/30/80 107/31/81
f 108/32/81 107/31/81 106/30/80
f 108/32/81 109/33/82 107/31/81
f 110/34/82 109/33/82 108/32/81
f 111/35/83 109/33/82 110/34/82
f 109/33/82 111/35/83 112/36/83
f 113/37/84 112/36/83 111/35/83
f 112/36/83 113/37/84 114/38/84
f 115/39/85 114/38/84 113/37/84
f 114/38/84 115/39/85 116/40/85
f 117/41/86 116/40/85 115/39/85
f 116/40/85 117/41/86 118/42/86
f 119/43/87 118/42/86 117/41/86
f 118/42/86 119/43/87 120/44/87
f 120/44/87 119/43/87 121/45/88
f 119/43/87 122/46/88 121/45/88
f 123/47/89 121/45/88 122/46/88
f 121/45/88 123/47/89 124/48/89
f 125/49/90 124/48/89 123/47/89
f 124/48/89 125/49/90 126/50/90
f 125/49/90 127/51/91 126/50/90
f 127/51/91 125/49/90 128/52/91
f 129/53/92 127/51/91 128/52/91
f 127/51/91 129/53/92 130/54/92
f 131/55/93 130/54/92 129/53/92
f 130/54/92 131/55/93 132/56/93
f 133/57/94 132/56/93 131/55/93
f 132/56/93 133/57/94 134/58/94
f 135/59/95 134/58/94 133/57/94
f 134/58/94 135/59/95 136/60/95
f 137/61/96 136/60/95 135/59/95
f 136/60/95 137/61/96 138/62/96
f 137/61/96 139/63/97 138/62/96
f 140/64/97 139/63/97 137/61/96
f 140/64/97 141/65/98 139/63/97
f 141/65/98 140/64/97 142/66/98
f 142/66/98 100/24/78 141/65/98
f 100/24/78 142/66/98 101/25/78
f 143/67/99 144/68/99 145/69/99
f 144/68/99 146/70/99 145/69/99
f 146/70/99 147/71/99 145/69/99
f 147/71/99 148/72/99 145/69/99
f 148/72/99 149/73/99 145/69/99
f 149/73/99 150/74/99 145/69/99
f 150/74/99 151/75/99 145/69/99
f 151/75/99 152/76/99 145/69/99
f 152/76/99 153/77/99 145/69/99
f 153/77/99 154/78/99 145/69/99
f 154/78/99 143/67/99 145/69/99
f 155/76/100 156/75/101 157/56/102
f 155/76/100 157/56/102 158/58/103
f 158/58/103 159/60/104 155/76/100
f 159/60/104 160/77/105 155/76/100
f 159/60/104 161/62/106 160/77/105
f 161/62/106 162/63/107 160/77/105
f 163/65/108 160/77/105 162/63/107
f 160/77/105 163/65/108 164/78/109
f 163/65/108 165/24/110 164/78/109
f 166/67/111 164/78/109 165/24/110
f 166/67/111 165/24/110 167/26/112
f 167/26/112 168/27/113 166/67/111
f 169/29/114 166/67/111 168/27/113
f 166/67/111 169/29/114 170/68/115
f 169/29/114 171/31/116 170/68/115
f 171/31/116 172/70/117 170/68/115
f 171/31/116 173/33/118 172/70/117
f 173/33/118 174/36/119 172/70/117
f 175/71/120 172/70/117 174/36/119
f 175/71/120 174/36/119 176/38/121
f 176/38/121 177/40/122 175/71/120
f 178/42/123 175/71/120 177/40/122
f 175/71/120 178/42/123 179/72/124
f 178/42/123 180/44/125 179/72/124
f 181/45/126 179/72/124 180/44/125
f 179/72/124 181/45/126 182/73/127
f 181/45/126 183/48/128 182/73/127
f 183/48/128 184/74/129 182/73/127
f 184/74/129 183/48/128 185/50/130
f 185/50/130 186/51/131 184/74/129
f 187/54/132 184/74/129 186/51/131
f 184/74/129 187/54/132 156/75/101
f 187/54/132 157/56/102 156/75/101
f 188/79/133 189/60/134 190/62/133
f 188/79/133 190/62/133 191/63/135
f 192/80/135 188/79/133 191/63/135
f 191/63/135 193/81/136 192/80/135
f 193/81/136 191/63/135 194/65/136
f 195/24/137 193/81/136 194/65/136
f 195/24/137 196/82/137 193/81/136
f 195/24/137 197/83/138 196/82/137
f 197/83/138 195/24/137 198/26/138
f 198/26/138 199/84/139 197/83/138
f 199/84/139 198/26/138 200/27/139
f 201/29/140 199/84/139 200/27/139
f 199/84/139 201/29/140 202/85/140
f 203/31/141 202/85/140 201/29/140
f 202/85/140 203/31/141 204/86/141
f 204/86/141 203/31/141 205/33/142
f 206/87/142 204/86/141 205/33/142
f 205/33/142 207/88/143 206/87/142
f 207/88/143 205/33/142 208/36/143
f 208/36/143 209/89/144 207/88/143
f 209/89/144 208/36/143 210/38/144
f 211/40/145 209/89/144 210/38/144
f 209/89/144 211/40/145 212/90/145
f 211/40/145 213/91/146 212/90/145
f 213/91/146 211/40/145 214/42/146
f 214/42/146 215/92/147 213/91/146
f 215/92/147 214/42/146 216/44/147
f 217/45/148 215/92/147 216/44/147
f 215/92/147 217/45/148 218/93/148
f 217/45/148 219/94/149 218/93/148
f 219/94/149 217/45/148 220/48/149
f 219/94/149 220/48/149 221/50/150
f 221/50/150 222/95/150 219/94/149
f 221/50/150 223/96/151 222/95/150
f 223/96/151 221/50/150 224/51/151
f 225/54/152 223/96/151 224/51/151
f 225/54/152 226/97/152 223/96/151
f 225/54/152 227/98/153 226/97/152
f 227/98/153 225/54/152 228/56/153
f 228/56/153 229/99/154 227/98/153
f 229/99/154 228/56/153 230/58/154
f 230/58/154 231/100/134 229/99/154
f 231/100/134 230/58/154 189/60/134
f 189/60/134 188/79/133 231/100/134
f 232/45/155 233/72/156 234/73/157
f 232/45/155 234/73/157 235/48/158
f 234/73/157 236/74/159 235/48/158
f 235/48/158 236/74/159 237/50/160
f 237/50/160 236/74/159 238/51/161
f 239/75/162 238/51/161 236/74/159
f 239/75/162 240/54/163 238/51/161
f 240/54/163 239/75/162 241/56/164
f 239/75/162 242/76/165 241/56/164
f 241/56/164 242/76/165 243/58/166
f 243/58/166 242/76/165 244/60/167
f 242/76/165 245/62/168 244/60/167
f 245/62/168 242/76/165 246/77/169
f 245/62/168 246/77/169 247/63/170
f 246/77/169 248/78/171 247/63/170
f 247/63/170 248/78/171 249/65/172
f 249/65/172 248/78/171 250/24/173
f 251/67/174 250/24/173 248/78/171
f 250/24/173 251/67/174 252/26/175
f 252/26/175 251/67/174 253/27/176
f 251/67/174 254/29/177 253/27/176
f 254/29/177 251/67/174 255/68/178
f 254/29/177 255/68/178 256/31/179
f 255/68/178 257/70/180 256/31/179
f 256/31/179 257/70/180 258/33/181
f 258/33/181 257/70/180 259/36/182
f 259/36/182 257/70/180 260/71/183
f 261/38/184 259/36/182 260/71/183
f 261/38/184 260/71/183 262/40/185
f 260/71/183 233/72/156 262/40/185
f 262/40/185 233/72/156 263/42/186
f 263/42/186 233/72/156 264/44/187
f 233/72/156 232/45/155 264/44/187
f 265/67/188 266/69/188 267/68/188
f 267/68/188 266/69/188 268/70/188
f 268/70/188 266/69/188 269/71/188
f 269/71/188 266/69/188 270/72/188
f 270/72/188 266/69/188 271/73/188
f 271/73/188 266/69/188 272/74/188
f 272/74/188 266/69/188 273/75/188
f 273/75/188 266/69/188 274/76/188
f 274/76/188 266/69/188 275/77/188
f 275/77/188 266/69/188 276/78/188
f 276/78/188 266/69/188 265/67/188
